<svg id="Ebene_1" data-name="Ebene 1" xmlns="http://www.w3.org/2000/svg" width="199.32mm" height="79.42mm" viewBox="0 0 565 225.13">
  <defs>
    <style>
      .cls-1 {
        fill: #f9ae00;
      }
    </style>
  </defs>
  <title>MEM_MetroMarkets_Logo_RGB_</title>
  <g>
    <path d="M517.47,24.45a23.24,23.24,0,0,1,22.81,18.23,1.19,1.19,0,0,0,1.16.93h22.37A1.19,1.19,0,0,0,565,42.42C565,32.87,554.22,0,517.47,0s-47.54,32.87-47.54,42.42a1.19,1.19,0,0,0,1.19,1.19H493.5a1.19,1.19,0,0,0,1.15-.93,23.24,23.24,0,0,1,22.82-18.23"/>
    <path d="M517.47,70.89a23.24,23.24,0,0,0,22.81-18.23,1.19,1.19,0,0,1,1.16-.93h22.37A1.18,1.18,0,0,1,565,52.91c0,9.56-10.78,42.43-47.53,42.43s-47.54-32.87-47.54-42.43a1.18,1.18,0,0,1,1.19-1.18H493.5a1.19,1.19,0,0,1,1.15.93,23.24,23.24,0,0,0,22.82,18.23"/>
    <rect x="273.19" y="32.17" width="25.32" height="61.44" rx="1.14"/>
    <rect x="244.6" y="1.74" width="82.5" height="22.32" rx="1.14"/>
    <rect x="170.82" y="37.64" width="35.96" height="20.07" rx="1.14"/>
    <path d="M210.91,71.29H162.83V24.05h47.42a1.14,1.14,0,0,0,1.14-1.14v-20a1.14,1.14,0,0,0-1.14-1.14H138.64a1.14,1.14,0,0,0-1.14,1.14V92.47a1.14,1.14,0,0,0,1.14,1.14h72.27a1.14,1.14,0,0,0,1.14-1.14v-20a1.14,1.14,0,0,0-1.14-1.14"/>
    <path d="M97.64,2a1.18,1.18,0,0,0-1.8-1l-47,28.62L1.8,1A1.18,1.18,0,0,0,0,2V92.47a1.14,1.14,0,0,0,1.14,1.14h23a1.14,1.14,0,0,0,1.14-1.14V42.71L47.68,56.14a2.61,2.61,0,0,0,1.14.41A2.56,2.56,0,0,0,50,56.14L97.06,28c.51-.3.59-.62.59-1.41,0-.34,0-24.6,0-24.6"/>
    <path class="cls-1" d="M97,38.13a1.18,1.18,0,0,0-1.18,0l-22.7,13.5c-.57.32-.83.64-.83,1.61V92.47a1.14,1.14,0,0,0,1.13,1.14H96.51a1.14,1.14,0,0,0,1.14-1.14V39.16a1.17,1.17,0,0,0-.61-1"/>
    <path d="M382,1.74H359.08a1.18,1.18,0,0,0-1.19,1.18v89.5a1.19,1.19,0,0,0,1.19,1.19H382a1.18,1.18,0,0,0,1.18-1.19V2.92A1.18,1.18,0,0,0,382,1.74"/>
    <path d="M383.2,92.47a1.13,1.13,0,0,1-1.13,1.14H359a1.14,1.14,0,0,1-1.14-1.14V2.88A1.14,1.14,0,0,1,359,1.74h23a1.13,1.13,0,0,1,1.13,1.14Z"/>
    <path d="M417.71,61.79s21.54-6.18,21.54-29c0-31-29.77-31-42.11-31h-4.68a1.14,1.14,0,0,0-1.14,1.14v20a1.14,1.14,0,0,0,1.14,1.13h7.41c3.51,0,13.79.61,13.79,11S403,46.1,400,46.1h-7.55a1.14,1.14,0,0,0-1.14,1.14V64.77a2.66,2.66,0,0,0,.51,1.77l17.91,26.55a1.2,1.2,0,0,0,1,.52h26.53a1.18,1.18,0,0,0,1-1.85Z"/>
    <g>
      <polygon points="40.22 185.46 10.34 140.71 0.12 140.71 0.12 224.45 10.22 224.45 10.22 158.67 39.6 201.76 40.6 201.76 69.98 158.55 69.98 224.45 80.32 224.45 80.32 140.71 70.09 140.71 40.22 185.46"/>
      <path d="M140,140.11h-9.39L92.46,224.45h10.67l9.81-21.87h44.39L167,224.45h11.15l-38-84Zm13.21,53.2H117.06l18.13-40.48Z"/>
      <path d="M242.83,187.33a26.33,26.33,0,0,0,7.15-5,21.25,21.25,0,0,0,4.67-7.09,24.62,24.62,0,0,0,1.65-9.29,23.6,23.6,0,0,0-2.13-10.11,22.38,22.38,0,0,0-6-7.8,27.77,27.77,0,0,0-9.39-5,40.28,40.28,0,0,0-12.36-1.77H190.81V224h9.34V191.8h23.64l24,32.15h11.47l-25.42-33.78A33.27,33.27,0,0,0,242.83,187.33Zm-42.68-3.81V149.83h25.6q10.08,0,15.64,4.33T247,166.32a16,16,0,0,1-1.6,7.24,15.56,15.56,0,0,1-4.44,5.4,20.92,20.92,0,0,1-6.76,3.38,29.32,29.32,0,0,1-8.53,1.18Z"/>
      <polygon points="346.87 140.71 333.41 140.71 286.6 189.38 286.6 140.71 276.26 140.71 276.26 224.45 286.6 224.45 286.6 201.93 303.67 184.63 335.12 224.26 335.27 224.45 348.25 224.45 310.88 177.41 346.87 140.71"/>
      <polygon points="369.67 186.98 414.82 186.98 414.82 177.47 369.67 177.47 369.67 150.22 420.14 150.22 420.14 140.71 359.33 140.71 359.33 224.45 420.73 224.45 420.73 214.94 369.67 214.94 369.67 186.98"/>
      <polygon points="431.22 150.34 459 150.34 459 224.45 469.34 224.45 469.34 150.34 497.12 150.34 497.12 140.71 431.22 140.71 431.22 150.34"/>
      <path d="M557.86,186.54q-6.55-5.44-20.39-8.53a81.83,81.83,0,0,1-11.23-3,25,25,0,0,1-6.86-3.56,10.55,10.55,0,0,1-3.42-4.32,14,14,0,0,1-1-5.33,11.72,11.72,0,0,1,1.24-5.32,12.18,12.18,0,0,1,3.55-4.26,18.14,18.14,0,0,1,5.55-2.85,23.29,23.29,0,0,1,7.27-1.06,35.5,35.5,0,0,1,12.24,2.13,40.2,40.2,0,0,1,11.64,6.85l5.44-7.21a48.26,48.26,0,0,0-13.18-7.54,45.9,45.9,0,0,0-15.9-2.51A33.23,33.23,0,0,0,522,141.74a27.5,27.5,0,0,0-8.62,4.74,21.09,21.09,0,0,0-5.68,7.16,20.59,20.59,0,0,0-2,9.11,22.21,22.21,0,0,0,1.66,9,17.71,17.71,0,0,0,5.09,6.63,31,31,0,0,0,8.71,4.86,87.1,87.1,0,0,0,12.39,3.55,83.92,83.92,0,0,1,10.72,3,23.82,23.82,0,0,1,6.58,3.43,10.77,10.77,0,0,1,3.32,4.2,13.83,13.83,0,0,1,.94,5.27,12.41,12.41,0,0,1-5,10.3q-5,3.92-13.42,3.91a37.78,37.78,0,0,1-15.25-2.9,48.9,48.9,0,0,1-13.12-8.8L502.48,212a51.17,51.17,0,0,0,15.66,9.92,49.71,49.71,0,0,0,18.15,3.2,37.42,37.42,0,0,0,11.35-1.65,26.24,26.24,0,0,0,8.89-4.74,21.86,21.86,0,0,0,7.89-17.17Q564.42,192,557.86,186.54Z"/>
    </g>
  </g>
</svg>
